<?xml version="1.0" encoding="UTF-8" standalone="no"?><svg xmlns="http://www.w3.org/2000/svg" xmlns:xlink="http://www.w3.org/1999/xlink" contentStyleType="text/css" height="355px" preserveAspectRatio="none" style="width:776px;height:355px;background:#FFFFFF;" version="1.1" viewBox="0 0 776 355" width="776px" zoomAndPan="magnify"><defs/><g><!--MD5=[db0a8d601c7f892ef08d7da8acee661a]
cluster app.softnetwork.persistence.message--><g id="cluster_app.softnetwork.persistence.message"><path d="M8.5,6 L277.5,6 A3.75,3.75 0 0 1 280,8.5 L287,28.4883 L766.5,28.4883 A2.5,2.5 0 0 1 769,30.9883 L769,345.5 A2.5,2.5 0 0 1 766.5,348 L8.5,348 A2.5,2.5 0 0 1 6,345.5 L6,8.5 A2.5,2.5 0 0 1 8.5,6 " fill="none" style="stroke:#000000;stroke-width:1.5;"/><line style="stroke:#000000;stroke-width:1.5;" x1="6" x2="287" y1="28.4883" y2="28.4883"/><text fill="#000000" font-family="sans-serif" font-size="14" font-weight="bold" lengthAdjust="spacing" textLength="268" x="10" y="21.5352">app.softnetwork.persistence.message</text></g><!--MD5=[8b8ed4d3c39d809e656c591f744ce388]
class CommandResult--><g id="elem_CommandResult"><rect codeLine="5" fill="#F1F1F1" height="40.6211" id="CommandResult" rx="2.5" ry="2.5" style="stroke:#181818;stroke-width:0.5;" width="145" x="607.5" y="41"/><ellipse cx="622.5" cy="61.3105" fill="#9B9B9B" rx="11" ry="11" style="stroke:#181818;stroke-width:1.0;"/><path d="M623.8418,68.5605 L621.3931,68.5605 L621.3931,58.3091 L618.2471,58.3091 L618.2471,56.1675 L626.9878,56.1675 L626.9878,58.3091 L623.8418,58.3091 Z " fill="#000000"/><text fill="#000000" font-family="sans-serif" font-size="12" font-style="italic" lengthAdjust="spacing" textLength="35" x="675.5" y="57.6016">«trait»</text><text fill="#000000" font-family="sans-serif" font-size="14" font-style="italic" lengthAdjust="spacing" textLength="113" x="636.5" y="73.668">CommandResult</text></g><!--MD5=[521817ab83e81da341a3f4b5e91bae41]
class Command--><g id="elem_Command"><rect codeLine="6" fill="#F1F1F1" height="40.6211" id="Command" rx="2.5" ry="2.5" style="stroke:#181818;stroke-width:0.5;" width="103" x="112.5" y="41"/><ellipse cx="127.5" cy="61.3105" fill="#9B9B9B" rx="11" ry="11" style="stroke:#181818;stroke-width:1.0;"/><path d="M128.8418,68.5605 L126.3931,68.5605 L126.3931,58.3091 L123.2471,58.3091 L123.2471,56.1675 L131.9878,56.1675 L131.9878,58.3091 L128.8418,58.3091 Z " fill="#000000"/><text fill="#000000" font-family="sans-serif" font-size="12" font-style="italic" lengthAdjust="spacing" textLength="35" x="159.5" y="57.6016">«trait»</text><text fill="#000000" font-family="sans-serif" font-size="14" font-style="italic" lengthAdjust="spacing" textLength="71" x="141.5" y="73.668">Command</text></g><!--MD5=[91bdd73bfa0be5a29d6eed45e8fe7d2b]
class CommandWithReply--><g id="elem_CommandWithReply"><rect codeLine="7" fill="#F1F1F1" height="65.1094" id="CommandWithReply" rx="2.5" ry="2.5" style="stroke:#181818;stroke-width:0.5;" width="284" x="22" y="142"/><ellipse cx="37" cy="162.3105" fill="#9B9B9B" rx="11" ry="11" style="stroke:#181818;stroke-width:1.0;"/><path d="M38.3418,169.5605 L35.8931,169.5605 L35.8931,159.3091 L32.7471,159.3091 L32.7471,157.1675 L41.4878,157.1675 L41.4878,159.3091 L38.3418,159.3091 Z " fill="#000000"/><text fill="#000000" font-family="sans-serif" font-size="12" font-style="italic" lengthAdjust="spacing" textLength="35" x="102.5" y="158.6016">«trait»</text><text fill="#000000" font-family="sans-serif" font-size="14" font-style="italic" lengthAdjust="spacing" textLength="138" x="51" y="174.668">CommandWithReply</text><rect fill="#FFFFFF" height="16.1328" style="stroke:#181818;stroke-width:1.0;stroke-dasharray:2.0,2.0;" width="112" x="197" y="139"/><text fill="#000000" font-family="sans-serif" font-size="12" font-style="italic" lengthAdjust="spacing" textLength="110" x="198" y="151.6016">R: CommandResult</text><line style="stroke:#181818;stroke-width:0.5;" x1="23" x2="305" y1="182.6211" y2="182.6211"/><ellipse cx="33" cy="196.3652" fill="none" rx="3" ry="3" style="stroke:#545454;stroke-width:1.0;"/><text fill="#000000" font-family="sans-serif" font-size="14" lengthAdjust="spacing" textLength="138" x="42" y="200.1563">replyTo: ActorRef[R]</text></g><g id="elem_GMN6"><path d="M341.5,146.5 L341.5,170.5 L306.31,174.5 L341.5,178.5 L341.5,202.4316 A0,0 0 0 0 341.5,202.4316 L582.5,202.4316 A0,0 0 0 0 582.5,202.4316 L582.5,156.5 L572.5,146.5 L341.5,146.5 A0,0 0 0 0 341.5,146.5 " fill="#FAFAFA" style="stroke:#181818;stroke-width:0.5;"/><path d="M572.5,146.5 L572.5,156.5 L582.5,156.5 L572.5,146.5 " fill="#FAFAFA" style="stroke:#181818;stroke-width:0.5;"/><text fill="#000000" font-family="sans-serif" font-size="13" lengthAdjust="spacing" textLength="171" x="347.5" y="164.0684">a command which includes</text><text fill="#000000" font-family="sans-serif" font-size="13" lengthAdjust="spacing" textLength="198" x="347.5" y="179.3789">a reference to the actor identity</text><text fill="#000000" font-family="sans-serif" font-size="13" lengthAdjust="spacing" textLength="220" x="347.5" y="194.6895">to whom a response has to be sent</text></g><!--MD5=[fe6b2754769bc87cf156126798433078]
class CommandWrapper--><g id="elem_CommandWrapper"><rect codeLine="13" fill="#F1F1F1" height="65.1094" id="CommandWrapper" rx="2.5" ry="2.5" style="stroke:#181818;stroke-width:0.5;" width="358" x="22" y="267"/><ellipse cx="37" cy="287.3105" fill="#9B9B9B" rx="11" ry="11" style="stroke:#181818;stroke-width:1.0;"/><path d="M38.3418,294.5605 L35.8931,294.5605 L35.8931,284.3091 L32.7471,284.3091 L32.7471,282.1675 L41.4878,282.1675 L41.4878,284.3091 L38.3418,284.3091 Z " fill="#000000"/><text fill="#000000" font-family="sans-serif" font-size="12" font-style="italic" lengthAdjust="spacing" textLength="35" x="98" y="283.6016">«trait»</text><text fill="#000000" font-family="sans-serif" font-size="14" font-style="italic" lengthAdjust="spacing" textLength="129" x="51" y="299.668">CommandWrapper</text><rect fill="#FFFFFF" height="16.1328" style="stroke:#181818;stroke-width:1.0;stroke-dasharray:2.0,2.0;" width="195" x="188" y="264"/><text fill="#000000" font-family="sans-serif" font-size="12" font-style="italic" lengthAdjust="spacing" textLength="193" x="189" y="276.6016">C: Command, R: CommandResult</text><line style="stroke:#181818;stroke-width:0.5;" x1="23" x2="379" y1="307.6211" y2="307.6211"/><ellipse cx="33" cy="321.3652" fill="none" rx="3" ry="3" style="stroke:#545454;stroke-width:1.0;"/><text fill="#000000" font-family="sans-serif" font-size="14" lengthAdjust="spacing" textLength="86" x="42" y="325.1563">command: C</text></g><!--MD5=[838ac959de5e1ba4664740f6291c93a0]
class ErrorMessage--><g id="elem_ErrorMessage"><rect codeLine="17" fill="#F1F1F1" height="56.4883" id="ErrorMessage" rx="2.5" ry="2.5" style="stroke:#181818;stroke-width:0.5;" width="135" x="617.5" y="146.5"/><ellipse cx="636.55" cy="162.5" fill="#C2C2C2" rx="11" ry="11" style="stroke:#181818;stroke-width:1.0;"/><path d="M639.0231,168.6431 Q638.4421,168.9419 637.8029,169.0913 Q637.1638,169.2407 636.4582,169.2407 Q633.9514,169.2407 632.6315,167.5889 Q631.3117,165.937 631.3117,162.8159 Q631.3117,159.6865 632.6315,158.0347 Q633.9514,156.3828 636.4582,156.3828 Q637.1638,156.3828 637.8112,156.5322 Q638.4587,156.6816 639.0231,156.9805 L639.0231,159.7031 Q638.3923,159.1221 637.7988,158.8523 Q637.2053,158.5825 636.5744,158.5825 Q635.2297,158.5825 634.5449,159.6492 Q633.8601,160.7158 633.8601,162.8159 Q633.8601,164.9077 634.5449,165.9744 Q635.2297,167.041 636.5744,167.041 Q637.2053,167.041 637.7988,166.7712 Q638.3923,166.5015 639.0231,165.9204 Z " fill="#000000"/><text fill="#000000" font-family="sans-serif" font-size="14" lengthAdjust="spacing" textLength="94" x="651.45" y="167.791">ErrorMessage</text><line style="stroke:#181818;stroke-width:0.5;" x1="618.5" x2="751.5" y1="178.5" y2="178.5"/><ellipse cx="628.5" cy="192.2441" fill="none" rx="3" ry="3" style="stroke:#545454;stroke-width:1.0;"/><text fill="#000000" font-family="sans-serif" font-size="14" lengthAdjust="spacing" textLength="109" x="637.5" y="196.0352">message: String</text></g><g id="elem_UnknownMessage"><rect fill="#F1F1F1" height="44.9766" style="stroke:#181818;stroke-width:0.5;" width="225" x="527.5" y="277"/><text fill="#000000" font-family="sans-serif" font-size="14" lengthAdjust="spacing" textLength="124" x="578" y="292.5352">UnknownMessage</text><line style="stroke:#181818;stroke-width:0.5;" x1="528.5" x2="751.5" y1="297.4883" y2="297.4883"/><text fill="#000000" font-family="sans-serif" font-size="14" lengthAdjust="spacing" textLength="213" x="533.5" y="315.0234">message = "UnknownMessage"</text></g><!--MD5=[3cc5c2c24bb81d0a81ddf7b4b54a96aa]
reverse link Command to CommandWithReply--><g id="link_Command_CommandWithReply"><path codeLine="11" d="M164,103.3 C164,115.95 164,129.7 164,141.65 " fill="none" id="Command-backto-CommandWithReply" style="stroke:#181818;stroke-width:1.0;"/><polygon fill="none" points="157,103.34,164,83.34,171,103.34,157,103.34" style="stroke:#181818;stroke-width:1.0;"/></g><!--MD5=[b9f24c687f2fa932040eb0382e2c9a96]
reverse link CommandWithReply to CommandWrapper--><g id="link_CommandWithReply_CommandWrapper"><path d="M179.65,227.52 C183.65,240.82 187.83,254.72 191.42,266.66 " fill="none" id="CommandWithReply-backto-CommandWrapper" style="stroke:#181818;stroke-width:1.0;"/><polygon fill="none" points="172.68,229.66,173.62,208.5,186.09,225.63,172.68,229.66" style="stroke:#181818;stroke-width:1.0;"/></g><!--MD5=[bf159bca68ac56d6b5ac9cb7d3de180e]
reverse link CommandResult to ErrorMessage--><g id="link_CommandResult_ErrorMessage"><path d="M681.83,103.14 C682.48,117.52 683.19,133.33 683.78,146.32 " fill="none" id="CommandResult-backto-ErrorMessage" style="stroke:#181818;stroke-width:1.0;stroke-dasharray:7.0,7.0;"/><polygon fill="none" points="674.8,103.64,680.89,83.34,688.79,103.01,674.8,103.64" style="stroke:#181818;stroke-width:1.0;"/></g><!--MD5=[5f3fe4472c14c243c89116944cddbc0d]
reverse link ErrorMessage to UnknownMessage--><g id="link_ErrorMessage_UnknownMessage"><path codeLine="23" d="M667.88,222.3 C661.05,240.96 653.52,261.54 648.01,276.6 " fill="none" id="ErrorMessage-backto-UnknownMessage" style="stroke:#181818;stroke-width:1.0;"/><polygon fill="none" points="661.57,220.18,675.01,203.8,674.72,224.99,661.57,220.18" style="stroke:#181818;stroke-width:1.0;"/></g><!--MD5=[8604c133578bd23bd4d89867b7a5ae3d]
@startuml Command
skinparam monochrome true
hide empty members

package app.softnetwork.persistence.message {
    abstract CommandResult << (T,orchid) trait >>
    abstract Command << (T,orchid) trait >>
    abstract CommandWithReply <R: CommandResult> <<(T,orchid) trait >>{
      +replyTo: ActorRef[R]
    }
    note right: a command which includes \na reference to the actor identity \nto whom a response has to be sent
    Command <|- - CommandWithReply

    abstract CommandWrapper <C: Command, R: CommandResult> <<(T,orchid) trait >> extends CommandWithReply {
     +command: C
    }

    class ErrorMessage implements CommandResult{
      +message: String
    }
    object UnknownMessage {
      message = "UnknownMessage"
    }
    ErrorMessage <|- - UnknownMessage
}
@enduml

PlantUML version 1.2022.12(Sun Oct 23 20:12:26 CEST 2022)
(GPL source distribution)
Java Runtime: OpenJDK Runtime Environment
JVM: OpenJDK 64-Bit Server VM
Default Encoding: UTF-8
Language: fr
Country: FR
--></g></svg>