<?xml version="1.0" encoding="UTF-8" standalone="no"?><svg xmlns="http://www.w3.org/2000/svg" xmlns:xlink="http://www.w3.org/1999/xlink" contentStyleType="text/css" height="516px" preserveAspectRatio="none" style="width:738px;height:516px;background:#FFFFFF;" version="1.1" viewBox="0 0 738 516" width="738px" zoomAndPan="magnify"><defs/><g><!--MD5=[db0a8d601c7f892ef08d7da8acee661a]
cluster app.softnetwork.persistence.message--><g id="cluster_app.softnetwork.persistence.message"><path d="M8.5,6 L277.5,6 A3.75,3.75 0 0 1 280,8.5 L287,28.4883 L728.5,28.4883 A2.5,2.5 0 0 1 731,30.9883 L731,506.5 A2.5,2.5 0 0 1 728.5,509 L8.5,509 A2.5,2.5 0 0 1 6,506.5 L6,8.5 A2.5,2.5 0 0 1 8.5,6 " fill="none" style="stroke:#000000;stroke-width:1.5;"/><line style="stroke:#000000;stroke-width:1.5;" x1="6" x2="287" y1="28.4883" y2="28.4883"/><text fill="#000000" font-family="sans-serif" font-size="14" font-weight="bold" lengthAdjust="spacing" textLength="268" x="10" y="21.5352">app.softnetwork.persistence.message</text></g><!--MD5=[ac13618b1a974308c1f12eb6c57723dc]
class Event--><g id="elem_Event"><rect codeLine="5" fill="#F1F1F1" height="40.6211" id="Event" rx="2.5" ry="2.5" style="stroke:#181818;stroke-width:0.5;" width="69" x="291.5" y="41"/><ellipse cx="306.5" cy="61.3105" fill="#9B9B9B" rx="11" ry="11" style="stroke:#181818;stroke-width:1.0;"/><path d="M307.8418,68.5605 L305.3931,68.5605 L305.3931,58.3091 L302.2471,58.3091 L302.2471,56.1675 L310.9878,56.1675 L310.9878,58.3091 L307.8418,58.3091 Z " fill="#000000"/><text fill="#000000" font-family="sans-serif" font-size="12" font-style="italic" lengthAdjust="spacing" textLength="35" x="321.5" y="57.6016">«trait»</text><text fill="#000000" font-family="sans-serif" font-size="14" font-style="italic" lengthAdjust="spacing" textLength="37" x="320.5" y="73.668">Event</text></g><!--MD5=[5e03e3803c82518c5bfb27110c22ae91]
class BroadcastEvent--><g id="elem_BroadcastEvent"><rect codeLine="6" fill="#F1F1F1" height="65.1094" id="BroadcastEvent" rx="2.5" ry="2.5" style="stroke:#181818;stroke-width:0.5;" width="164" x="22" y="143"/><ellipse cx="49.6" cy="163.3105" fill="#9B9B9B" rx="11" ry="11" style="stroke:#181818;stroke-width:1.0;"/><path d="M50.9418,170.5605 L48.4931,170.5605 L48.4931,160.3091 L45.3471,160.3091 L45.3471,158.1675 L54.0878,158.1675 L54.0878,160.3091 L50.9418,160.3091 Z " fill="#000000"/><text fill="#000000" font-family="sans-serif" font-size="12" font-style="italic" lengthAdjust="spacing" textLength="35" x="100.9" y="159.6016">«trait»</text><text fill="#000000" font-family="sans-serif" font-size="14" font-style="italic" lengthAdjust="spacing" textLength="104" x="66.4" y="175.668">BroadcastEvent</text><line style="stroke:#181818;stroke-width:0.5;" x1="23" x2="185" y1="183.6211" y2="183.6211"/><ellipse cx="33" cy="197.3652" fill="none" rx="3" ry="3" style="stroke:#545454;stroke-width:1.0;"/><text fill="#000000" font-family="sans-serif" font-size="14" lengthAdjust="spacing" textLength="138" x="42" y="201.1563">externalUuid: String</text></g><g id="elem_GMN6"><path d="M221.5,155 L221.5,171.5 L186.39,175.5 L221.5,179.5 L221.5,195.6211 A0,0 0 0 0 221.5,195.6211 L460.5,195.6211 A0,0 0 0 0 460.5,195.6211 L460.5,165 L450.5,155 L221.5,155 A0,0 0 0 0 221.5,155 " fill="#FAFAFA" style="stroke:#181818;stroke-width:0.5;"/><path d="M450.5,155 L450.5,165 L460.5,165 L450.5,155 " fill="#FAFAFA" style="stroke:#181818;stroke-width:0.5;"/><text fill="#000000" font-family="sans-serif" font-size="13" lengthAdjust="spacing" textLength="214" x="227.5" y="172.5684">A particular event that is intended</text><text fill="#000000" font-family="sans-serif" font-size="13" lengthAdjust="spacing" textLength="98" x="227.5" y="187.8789">to be broadcast</text></g><!--MD5=[86fe057180b33c0d9723a8533e23dfc2]
class CrudEvent--><g id="elem_CrudEvent"><rect codeLine="10" fill="#F1F1F1" height="40.6211" id="CrudEvent" rx="2.5" ry="2.5" style="stroke:#181818;stroke-width:0.5;" width="103" x="495.5" y="155"/><ellipse cx="510.5" cy="175.3105" fill="#9B9B9B" rx="11" ry="11" style="stroke:#181818;stroke-width:1.0;"/><path d="M511.8418,182.5605 L509.3931,182.5605 L509.3931,172.3091 L506.2471,172.3091 L506.2471,170.1675 L514.9878,170.1675 L514.9878,172.3091 L511.8418,172.3091 Z " fill="#000000"/><text fill="#000000" font-family="sans-serif" font-size="12" font-style="italic" lengthAdjust="spacing" textLength="35" x="542.5" y="171.6016">«trait»</text><text fill="#000000" font-family="sans-serif" font-size="14" font-style="italic" lengthAdjust="spacing" textLength="71" x="524.5" y="187.668">CrudEvent</text></g><!--MD5=[97b90e3fbf62063cfb8ac6c8f1f38dab]
class Created--><g id="elem_Created"><rect codeLine="11" fill="#F1F1F1" height="65.1094" id="Created" rx="2.5" ry="2.5" style="stroke:#181818;stroke-width:0.5;" width="186" x="22" y="277.5"/><ellipse cx="37" cy="297.8105" fill="#9B9B9B" rx="11" ry="11" style="stroke:#181818;stroke-width:1.0;"/><path d="M38.3418,305.0605 L35.8931,305.0605 L35.8931,294.8091 L32.7471,294.8091 L32.7471,292.6675 L41.4878,292.6675 L41.4878,294.8091 L38.3418,294.8091 Z " fill="#000000"/><text fill="#000000" font-family="sans-serif" font-size="12" font-style="italic" lengthAdjust="spacing" textLength="35" x="60.5" y="294.1016">«trait»</text><text fill="#000000" font-family="sans-serif" font-size="14" font-style="italic" lengthAdjust="spacing" textLength="54" x="51" y="310.168">Created</text><rect fill="#FFFFFF" height="16.1328" style="stroke:#181818;stroke-width:1.0;stroke-dasharray:2.0,2.0;" width="98" x="113" y="274.5"/><text fill="#000000" font-family="sans-serif" font-size="12" font-style="italic" lengthAdjust="spacing" textLength="96" x="114" y="287.1016">T: Timestamped</text><line style="stroke:#181818;stroke-width:0.5;" x1="23" x2="207" y1="318.1211" y2="318.1211"/><ellipse cx="33" cy="331.8652" fill="none" rx="3" ry="3" style="stroke:#545454;stroke-width:1.0;"/><text fill="#000000" font-family="sans-serif" font-size="14" lengthAdjust="spacing" textLength="86" x="42" y="335.6563">document: T</text></g><!--MD5=[59e25865eff7d5dcb20dd0fd75436df0]
class Updated--><g id="elem_Updated"><rect codeLine="14" fill="#F1F1F1" height="81.5977" id="Updated" rx="2.5" ry="2.5" style="stroke:#181818;stroke-width:0.5;" width="190" x="243" y="269"/><ellipse cx="258" cy="289.3105" fill="#9B9B9B" rx="11" ry="11" style="stroke:#181818;stroke-width:1.0;"/><path d="M259.3418,296.5605 L256.8931,296.5605 L256.8931,286.3091 L253.7471,286.3091 L253.7471,284.1675 L262.4878,284.1675 L262.4878,286.3091 L259.3418,286.3091 Z " fill="#000000"/><text fill="#000000" font-family="sans-serif" font-size="12" font-style="italic" lengthAdjust="spacing" textLength="35" x="283.5" y="285.6016">«trait»</text><text fill="#000000" font-family="sans-serif" font-size="14" font-style="italic" lengthAdjust="spacing" textLength="58" x="272" y="301.668">Updated</text><rect fill="#FFFFFF" height="16.1328" style="stroke:#181818;stroke-width:1.0;stroke-dasharray:2.0,2.0;" width="98" x="338" y="266"/><text fill="#000000" font-family="sans-serif" font-size="12" font-style="italic" lengthAdjust="spacing" textLength="96" x="339" y="278.6016">T: Timestamped</text><line style="stroke:#181818;stroke-width:0.5;" x1="244" x2="432" y1="309.6211" y2="309.6211"/><ellipse cx="254" cy="323.3652" fill="none" rx="3" ry="3" style="stroke:#545454;stroke-width:1.0;"/><text fill="#000000" font-family="sans-serif" font-size="14" lengthAdjust="spacing" textLength="86" x="263" y="327.1563">document: T</text><ellipse cx="254" cy="339.8535" fill="none" rx="3" ry="3" style="stroke:#545454;stroke-width:1.0;"/><text fill="#000000" font-family="sans-serif" font-size="14" lengthAdjust="spacing" textLength="154" x="263" y="343.6445">upsert: Boolean = true</text></g><!--MD5=[d1418031573a1bdbe3f490000e29f7e3]
class Upserted--><g id="elem_Upserted"><rect codeLine="18" fill="#F1F1F1" height="81.5977" id="Upserted" rx="2.5" ry="2.5" style="stroke:#181818;stroke-width:0.5;" width="106" x="468" y="269"/><ellipse cx="488.4" cy="289.3105" fill="#9B9B9B" rx="11" ry="11" style="stroke:#181818;stroke-width:1.0;"/><path d="M489.7418,296.5605 L487.2931,296.5605 L487.2931,286.3091 L484.1471,286.3091 L484.1471,284.1675 L492.8878,284.1675 L492.8878,286.3091 L489.7418,286.3091 Z " fill="#000000"/><text fill="#000000" font-family="sans-serif" font-size="12" font-style="italic" lengthAdjust="spacing" textLength="35" x="517.1" y="285.6016">«trait»</text><text fill="#000000" font-family="sans-serif" font-size="14" font-style="italic" lengthAdjust="spacing" textLength="62" x="503.6" y="301.668">Upserted</text><line style="stroke:#181818;stroke-width:0.5;" x1="469" x2="573" y1="309.6211" y2="309.6211"/><ellipse cx="479" cy="323.3652" fill="none" rx="3" ry="3" style="stroke:#545454;stroke-width:1.0;"/><text fill="#000000" font-family="sans-serif" font-size="14" lengthAdjust="spacing" textLength="80" x="488" y="327.1563">uuid: String</text><ellipse cx="479" cy="339.8535" fill="none" rx="3" ry="3" style="stroke:#545454;stroke-width:1.0;"/><text fill="#000000" font-family="sans-serif" font-size="14" lengthAdjust="spacing" textLength="79" x="488" y="343.6445">data: String</text></g><!--MD5=[9f29c8bcf4ac4e1825b61aebb1c34aef]
class UpsertedDecorator--><g id="elem_UpsertedDecorator"><rect codeLine="22" fill="#F1F1F1" height="65.1094" id="UpsertedDecorator" rx="2.5" ry="2.5" style="stroke:#181818;stroke-width:0.5;" width="162" x="440" y="428"/><ellipse cx="455" cy="448.3105" fill="#9B9B9B" rx="11" ry="11" style="stroke:#181818;stroke-width:1.0;"/><path d="M456.3418,455.5605 L453.8931,455.5605 L453.8931,445.3091 L450.7471,445.3091 L450.7471,443.1675 L459.4878,443.1675 L459.4878,445.3091 L456.3418,445.3091 Z " fill="#000000"/><text fill="#000000" font-family="sans-serif" font-size="12" font-style="italic" lengthAdjust="spacing" textLength="35" x="516.5" y="444.6016">«trait»</text><text fill="#000000" font-family="sans-serif" font-size="14" font-style="italic" lengthAdjust="spacing" textLength="130" x="469" y="460.668">UpsertedDecorator</text><line style="stroke:#181818;stroke-width:0.5;" x1="441" x2="601" y1="468.6211" y2="468.6211"/><ellipse cx="451" cy="482.3652" fill="none" rx="3" ry="3" style="stroke:#545454;stroke-width:1.0;"/><text fill="#000000" font-family="sans-serif" font-size="14" lengthAdjust="spacing" textLength="79" x="460" y="486.1563">data: String</text></g><!--MD5=[76f0147a949273af7d057bfe45e54529]
class Deleted--><g id="elem_Deleted"><rect codeLine="26" fill="#F1F1F1" height="65.1094" id="Deleted" rx="2.5" ry="2.5" style="stroke:#181818;stroke-width:0.5;" width="106" x="609" y="277.5"/><ellipse cx="633.9" cy="297.8105" fill="#9B9B9B" rx="11" ry="11" style="stroke:#181818;stroke-width:1.0;"/><path d="M635.2418,305.0605 L632.7931,305.0605 L632.7931,294.8091 L629.6471,294.8091 L629.6471,292.6675 L638.3878,292.6675 L638.3878,294.8091 L635.2418,294.8091 Z " fill="#000000"/><text fill="#000000" font-family="sans-serif" font-size="12" font-style="italic" lengthAdjust="spacing" textLength="35" x="658.6" y="294.1016">«trait»</text><text fill="#000000" font-family="sans-serif" font-size="14" font-style="italic" lengthAdjust="spacing" textLength="52" x="650.1" y="310.168">Deleted</text><line style="stroke:#181818;stroke-width:0.5;" x1="610" x2="714" y1="318.1211" y2="318.1211"/><ellipse cx="620" cy="331.8652" fill="none" rx="3" ry="3" style="stroke:#545454;stroke-width:1.0;"/><text fill="#000000" font-family="sans-serif" font-size="14" lengthAdjust="spacing" textLength="80" x="629" y="335.6563">uuid: String</text></g><!--MD5=[2bd663a2567e05aeb25c35874a8f8716]
reverse link Event to BroadcastEvent--><g id="link_Event_BroadcastEvent"><path d="M272.79,89.34 C240.99,105.39 200.42,125.86 167.02,142.7 " fill="none" id="Event-backto-BroadcastEvent" style="stroke:#181818;stroke-width:1.0;"/><polygon fill="none" points="269.3,82.76,290.31,80,275.61,95.26,269.3,82.76" style="stroke:#181818;stroke-width:1.0;"/></g><!--MD5=[de6b74e7399664a51ee4459f74970236]
reverse link Event to CrudEvent--><g id="link_Event_CrudEvent"><path d="M379.04,89.38 C418.7,109.48 472.04,136.51 507.87,154.67 " fill="none" id="Event-backto-CrudEvent" style="stroke:#181818;stroke-width:1.0;"/><polygon fill="none" points="376.21,95.29,361.53,80,382.54,82.8,376.21,95.29" style="stroke:#181818;stroke-width:1.0;"/></g><!--MD5=[7ad2e9c2c9a53027d17d9b991bfacb94]
reverse link CrudEvent to Created--><g id="link_CrudEvent_Created"><path d="M487.42,204.54 C484.26,205.76 481.1,206.93 478,208 C369.09,245.65 336.37,235.86 226,269 C217.76,271.47 209.24,274.21 200.74,277.06 " fill="none" id="CrudEvent-backto-Created" style="stroke:#181818;stroke-width:1.0;"/><polygon fill="none" points="484.51,197.75,505.66,196.47,489.93,210.66,484.51,197.75" style="stroke:#181818;stroke-width:1.0;"/></g><!--MD5=[298740c9f3c13d311cb71d2782368c74]
reverse link CrudEvent to Updated--><g id="link_CrudEvent_Updated"><path d="M498.07,207.52 C469.28,225.77 432.55,249.06 401.53,268.72 " fill="none" id="CrudEvent-backto-Updated" style="stroke:#181818;stroke-width:1.0;"/><polygon fill="none" points="494.07,201.13,514.71,196.34,501.57,212.96,494.07,201.13" style="stroke:#181818;stroke-width:1.0;"/></g><!--MD5=[fabbfa2d90857d14cb07e14368614007]
reverse link CrudEvent to Upserted--><g id="link_CrudEvent_Upserted"><path d="M539.1,216.74 C535.87,233.22 532.14,252.24 528.9,268.72 " fill="none" id="CrudEvent-backto-Upserted" style="stroke:#181818;stroke-width:1.0;"/><polygon fill="none" points="532.39,215.61,543.11,197.34,546.13,218.31,532.39,215.61" style="stroke:#181818;stroke-width:1.0;"/></g><!--MD5=[c180775e4a3b42ef8e750ca932a5281b]
reverse link Upserted to UpsertedDecorator--><g id="link_Upserted_UpsertedDecorator"><path codeLine="25" d="M521,372 C521,391.14 521,411.49 521,427.75 " fill="none" id="Upserted-backto-UpsertedDecorator" style="stroke:#181818;stroke-width:1.0;stroke-dasharray:7.0,7.0;"/><polygon fill="none" points="514,372.19,521,352.19,528,372.19,514,372.19" style="stroke:#181818;stroke-width:1.0;"/><text fill="#000000" font-family="sans-serif" font-size="13" lengthAdjust="spacing" textLength="37" x="522" y="394.5684">«self»</text></g><!--MD5=[4378f62082777eb9b81438e0cf4167b2]
reverse link CrudEvent to Deleted--><g id="link_CrudEvent_Deleted"><path d="M577.8,211.99 C595.41,232.28 617.32,257.52 634.38,277.17 " fill="none" id="CrudEvent-backto-Deleted" style="stroke:#181818;stroke-width:1.0;"/><polygon fill="none" points="572.04,217.03,564.22,197.34,582.61,207.85,572.04,217.03" style="stroke:#181818;stroke-width:1.0;"/></g><!--MD5=[c9a3d2a64f79f732e49211a60402c5c9]
@startuml Event
hide empty members
skinparam monochrome true

package app.softnetwork.persistence.message {
    abstract Event << (T,orchid) trait >>
    abstract BroadcastEvent << (T,orchid) trait >> extends Event {
        +externalUuid: String
    }
    note left of BroadcastEvent: A particular event that is intended \nto be broadcast
    abstract CrudEvent << (T,orchid) trait >> extends Event
    abstract Created <T: Timestamped> << (T,orchid) trait >> extends CrudEvent {
        +document: T
    }
    abstract Updated <T: Timestamped> << (T,orchid) trait >> extends CrudEvent {
        +document: T
        +upsert: Boolean = true
    }
    abstract Upserted << (T,orchid) trait >> extends CrudEvent {
        +uuid: String
        +data: String
    }
    abstract UpsertedDecorator << (T,orchid) trait >> {
        +data: String
    }
    Upserted <|.. UpsertedDecorator: <<self>>
    abstract Deleted << (T,orchid) trait >> extends CrudEvent {
        +uuid: String
    }
}
@enduml

PlantUML version 1.2022.12(Sun Oct 23 20:12:26 CEST 2022)
(GPL source distribution)
Java Runtime: OpenJDK Runtime Environment
JVM: OpenJDK 64-Bit Server VM
Default Encoding: UTF-8
Language: fr
Country: FR
--></g></svg>