<?xml version="1.0" encoding="UTF-8" standalone="no"?><svg xmlns="http://www.w3.org/2000/svg" xmlns:xlink="http://www.w3.org/1999/xlink" contentStyleType="text/css" height="448px" preserveAspectRatio="none" style="width:1182px;height:448px;background:#FFFFFF;" version="1.1" viewBox="0 0 1182 448" width="1182px" zoomAndPan="magnify"><defs/><g><!--MD5=[11eb2407d6ff70dab97e58b348856eff]
cluster app.softnetwork.persistence--><g id="cluster_app.softnetwork.persistence"><path d="M8.5,6 L211.5,6 A3.75,3.75 0 0 1 214,8.5 L221,28.4883 L1172.5,28.4883 A2.5,2.5 0 0 1 1175,30.9883 L1175,438.5 A2.5,2.5 0 0 1 1172.5,441 L8.5,441 A2.5,2.5 0 0 1 6,438.5 L6,8.5 A2.5,2.5 0 0 1 8.5,6 " fill="none" style="stroke:#000000;stroke-width:1.5;"/><line style="stroke:#000000;stroke-width:1.5;" x1="6" x2="221" y1="28.4883" y2="28.4883"/><text fill="#000000" font-family="sans-serif" font-size="14" font-weight="bold" lengthAdjust="spacing" textLength="202" x="10" y="21.5352">app.softnetwork.persistence</text></g><!--MD5=[88851b7b27e529b39ff5d3ce6ae79142]
cluster message--><g id="cluster_message"><path d="M707.5,61 L771.5,61 A3.75,3.75 0 0 1 774,63.5 L781,83.4883 L1148.5,83.4883 A2.5,2.5 0 0 1 1151,85.9883 L1151,414.5 A2.5,2.5 0 0 1 1148.5,417 L707.5,417 A2.5,2.5 0 0 1 705,414.5 L705,63.5 A2.5,2.5 0 0 1 707.5,61 " fill="none" style="stroke:#000000;stroke-width:1.5;"/><line style="stroke:#000000;stroke-width:1.5;" x1="705" x2="781" y1="83.4883" y2="83.4883"/><text fill="#000000" font-family="sans-serif" font-size="14" font-weight="bold" lengthAdjust="spacing" textLength="63" x="709" y="76.5352">message</text></g><!--MD5=[5d4cd377749310b66bf14896f5cd8d9b]
cluster model--><g id="cluster_model"><path d="M32.5,49 L78.5,49 A3.75,3.75 0 0 1 81,51.5 L88,71.4883 L678.5,71.4883 A2.5,2.5 0 0 1 681,73.9883 L681,295.5 A2.5,2.5 0 0 1 678.5,298 L32.5,298 A2.5,2.5 0 0 1 30,295.5 L30,51.5 A2.5,2.5 0 0 1 32.5,49 " fill="none" style="stroke:#000000;stroke-width:1.5;"/><line style="stroke:#000000;stroke-width:1.5;" x1="30" x2="88" y1="71.4883" y2="71.4883"/><text fill="#000000" font-family="sans-serif" font-size="14" font-weight="bold" lengthAdjust="spacing" textLength="45" x="34" y="64.5352">model</text></g><!--MD5=[ac13618b1a974308c1f12eb6c57723dc]
class Event--><g id="elem_Event"><rect codeLine="6" fill="#F1F1F1" height="40.6211" id="Event" rx="2.5" ry="2.5" style="stroke:#181818;stroke-width:0.5;" width="69" x="902.5" y="96"/><ellipse cx="917.5" cy="116.3105" fill="#9B9B9B" rx="11" ry="11" style="stroke:#181818;stroke-width:1.0;"/><path d="M918.8418,123.5605 L916.3931,123.5605 L916.3931,113.3091 L913.2471,113.3091 L913.2471,111.1675 L921.9878,111.1675 L921.9878,113.3091 L918.8418,113.3091 Z " fill="#000000"/><text fill="#000000" font-family="sans-serif" font-size="12" font-style="italic" lengthAdjust="spacing" textLength="35" x="932.5" y="112.6016">«trait»</text><text fill="#000000" font-family="sans-serif" font-size="14" font-style="italic" lengthAdjust="spacing" textLength="37" x="931.5" y="128.668">Event</text></g><!--MD5=[15ab5119cce40e2166e334bc0ff4208a]
class ProtobufEvent--><g id="elem_ProtobufEvent"><rect codeLine="7" fill="#F1F1F1" height="40.6211" id="ProtobufEvent" rx="2.5" ry="2.5" style="stroke:#181818;stroke-width:0.5;" width="129" x="778.5" y="233.5"/><ellipse cx="793.5" cy="253.8105" fill="#9B9B9B" rx="11" ry="11" style="stroke:#181818;stroke-width:1.0;"/><path d="M794.8418,261.0605 L792.3931,261.0605 L792.3931,250.8091 L789.2471,250.8091 L789.2471,248.6675 L797.9878,248.6675 L797.9878,250.8091 L794.8418,250.8091 Z " fill="#000000"/><text fill="#000000" font-family="sans-serif" font-size="12" font-style="italic" lengthAdjust="spacing" textLength="35" x="838.5" y="250.1016">«trait»</text><text fill="#000000" font-family="sans-serif" font-size="14" font-style="italic" lengthAdjust="spacing" textLength="97" x="807.5" y="266.168">ProtobufEvent</text></g><g id="elem_GMN7"><path d="M721.5,345 L721.5,400.9316 A0,0 0 0 0 721.5,400.9316 L910.5,400.9316 A0,0 0 0 0 910.5,400.9316 L910.5,355 L900.5,345 L826.33,345 L838.42,274.85 L818.33,345 L721.5,345 A0,0 0 0 0 721.5,345 " fill="#FAFAFA" style="stroke:#181818;stroke-width:0.5;"/><path d="M900.5,345 L900.5,355 L910.5,355 L900.5,345 " fill="#FAFAFA" style="stroke:#181818;stroke-width:0.5;"/><text fill="#000000" font-family="sans-serif" font-size="13" lengthAdjust="spacing" textLength="164" x="727.5" y="362.5684">Marker trait for serializing</text><text fill="#000000" font-family="sans-serif" font-size="13" lengthAdjust="spacing" textLength="92" x="727.5" y="377.8789">an event using</text><text fill="#000000" font-family="sans-serif" font-size="13" lengthAdjust="spacing" textLength="115" x="727.5" y="393.1895">Protobuf Serializer</text></g><!--MD5=[017cf148d82c545da437ca02ecf5dbc2]
class CborEvent--><g id="elem_CborEvent"><rect codeLine="9" fill="#F1F1F1" height="40.6211" id="CborEvent" rx="2.5" ry="2.5" style="stroke:#181818;stroke-width:0.5;" width="103" x="978.5" y="233.5"/><ellipse cx="993.5" cy="253.8105" fill="#9B9B9B" rx="11" ry="11" style="stroke:#181818;stroke-width:1.0;"/><path d="M994.8418,261.0605 L992.3931,261.0605 L992.3931,250.8091 L989.2471,250.8091 L989.2471,248.6675 L997.9878,248.6675 L997.9878,250.8091 L994.8418,250.8091 Z " fill="#000000"/><text fill="#000000" font-family="sans-serif" font-size="12" font-style="italic" lengthAdjust="spacing" textLength="35" x="1025.5" y="250.1016">«trait»</text><text fill="#000000" font-family="sans-serif" font-size="14" font-style="italic" lengthAdjust="spacing" textLength="71" x="1007.5" y="266.168">CborEvent</text></g><g id="elem_GMN12"><path d="M945.5,345 L945.5,400.9316 A0,0 0 0 0 945.5,400.9316 L1134.5,400.9316 A0,0 0 0 0 1134.5,400.9316 L1134.5,355 L1124.5,345 L1041.66,345 L1031.7,274.85 L1033.66,345 L945.5,345 A0,0 0 0 0 945.5,345 " fill="#FAFAFA" style="stroke:#181818;stroke-width:0.5;"/><path d="M1124.5,345 L1124.5,355 L1134.5,355 L1124.5,345 " fill="#FAFAFA" style="stroke:#181818;stroke-width:0.5;"/><text fill="#000000" font-family="sans-serif" font-size="13" lengthAdjust="spacing" textLength="164" x="951.5" y="362.5684">Marker trait for serializing</text><text fill="#000000" font-family="sans-serif" font-size="13" lengthAdjust="spacing" textLength="92" x="951.5" y="377.8789">an event using</text><text fill="#000000" font-family="sans-serif" font-size="13" lengthAdjust="spacing" textLength="148" x="951.5" y="393.1895">Jackson CBOR Serializer</text></g><!--MD5=[60d6b92408f98aed8df94d5c6e04aa63]
class State--><g id="elem_State"><rect codeLine="13" fill="#F1F1F1" height="65.1094" id="State" rx="2.5" ry="2.5" style="stroke:#181818;stroke-width:0.5;" width="106" x="527" y="84"/><ellipse cx="560" cy="104.3105" fill="#9B9B9B" rx="11" ry="11" style="stroke:#181818;stroke-width:1.0;"/><path d="M561.3418,111.5605 L558.8931,111.5605 L558.8931,101.3091 L555.7471,101.3091 L555.7471,99.1675 L564.4878,99.1675 L564.4878,101.3091 L561.3418,101.3091 Z " fill="#000000"/><text fill="#000000" font-family="sans-serif" font-size="12" font-style="italic" lengthAdjust="spacing" textLength="35" x="577.5" y="100.6016">«trait»</text><text fill="#000000" font-family="sans-serif" font-size="14" font-style="italic" lengthAdjust="spacing" textLength="34" x="578" y="116.668">State</text><line style="stroke:#181818;stroke-width:0.5;" x1="528" x2="632" y1="124.6211" y2="124.6211"/><ellipse cx="538" cy="138.3652" fill="none" rx="3" ry="3" style="stroke:#545454;stroke-width:1.0;"/><text fill="#000000" font-family="sans-serif" font-size="14" lengthAdjust="spacing" textLength="80" x="547" y="142.1563">uuid: String</text></g><!--MD5=[d09cb635ba2e09ef9dc8811d574af766]
class ProtobufDomainObject--><g id="elem_ProtobufDomainObject"><rect codeLine="16" fill="#F1F1F1" height="40.6211" id="ProtobufDomainObject" rx="2.5" ry="2.5" style="stroke:#181818;stroke-width:0.5;" width="189" x="294.5" y="96"/><ellipse cx="309.5" cy="116.3105" fill="#9B9B9B" rx="11" ry="11" style="stroke:#181818;stroke-width:1.0;"/><path d="M310.8418,123.5605 L308.3931,123.5605 L308.3931,113.3091 L305.2471,113.3091 L305.2471,111.1675 L313.9878,111.1675 L313.9878,113.3091 L310.8418,113.3091 Z " fill="#000000"/><text fill="#000000" font-family="sans-serif" font-size="12" font-style="italic" lengthAdjust="spacing" textLength="35" x="384.5" y="112.6016">«trait»</text><text fill="#000000" font-family="sans-serif" font-size="14" font-style="italic" lengthAdjust="spacing" textLength="157" x="323.5" y="128.668">ProtobufDomainObject</text></g><g id="elem_GMN18"><path d="M270.5,226 L270.5,281.9316 A0,0 0 0 0 270.5,281.9316 L459.5,281.9316 A0,0 0 0 0 459.5,281.9316 L459.5,236 L449.5,226 L373.8,226 L385.46,137.49 L365.8,226 L270.5,226 A0,0 0 0 0 270.5,226 " fill="#FAFAFA" style="stroke:#181818;stroke-width:0.5;"/><path d="M449.5,226 L449.5,236 L459.5,236 L449.5,226 " fill="#FAFAFA" style="stroke:#181818;stroke-width:0.5;"/><text fill="#000000" font-family="sans-serif" font-size="13" lengthAdjust="spacing" textLength="164" x="276.5" y="243.5684">Marker trait for serializing</text><text fill="#000000" font-family="sans-serif" font-size="13" lengthAdjust="spacing" textLength="144" x="276.5" y="258.8789">a Domain Object using</text><text fill="#000000" font-family="sans-serif" font-size="13" lengthAdjust="spacing" textLength="115" x="276.5" y="274.1895">Protobuf Serializer</text></g><!--MD5=[bbd15261341e43157c08a3731c07695d]
class CborDomainObject--><g id="elem_CborDomainObject"><rect codeLine="18" fill="#F1F1F1" height="40.6211" id="CborDomainObject" rx="2.5" ry="2.5" style="stroke:#181818;stroke-width:0.5;" width="163" x="59.5" y="96"/><ellipse cx="74.5" cy="116.3105" fill="#9B9B9B" rx="11" ry="11" style="stroke:#181818;stroke-width:1.0;"/><path d="M75.8418,123.5605 L73.3931,123.5605 L73.3931,113.3091 L70.2471,113.3091 L70.2471,111.1675 L78.9878,111.1675 L78.9878,113.3091 L75.8418,113.3091 Z " fill="#000000"/><text fill="#000000" font-family="sans-serif" font-size="12" font-style="italic" lengthAdjust="spacing" textLength="35" x="136.5" y="112.6016">«trait»</text><text fill="#000000" font-family="sans-serif" font-size="14" font-style="italic" lengthAdjust="spacing" textLength="131" x="88.5" y="128.668">CborDomainObject</text></g><g id="elem_GMN22"><path d="M46.5,226 L46.5,281.9316 A0,0 0 0 0 46.5,281.9316 L235.5,281.9316 A0,0 0 0 0 235.5,281.9316 L235.5,236 L225.5,226 L145,226 L141,137.49 L137,226 L46.5,226 A0,0 0 0 0 46.5,226 " fill="#FAFAFA" style="stroke:#181818;stroke-width:0.5;"/><path d="M225.5,226 L225.5,236 L235.5,236 L225.5,226 " fill="#FAFAFA" style="stroke:#181818;stroke-width:0.5;"/><text fill="#000000" font-family="sans-serif" font-size="13" lengthAdjust="spacing" textLength="164" x="52.5" y="243.5684">Marker trait for serializing</text><text fill="#000000" font-family="sans-serif" font-size="13" lengthAdjust="spacing" textLength="144" x="52.5" y="258.8789">a Domain Object using</text><text fill="#000000" font-family="sans-serif" font-size="13" lengthAdjust="spacing" textLength="148" x="52.5" y="274.1895">Jackson CBOR Serializer</text></g><!--MD5=[eefe30f94418bf4dfece7f6bba4ec155]
class ProtobufStateObject--><g id="elem_ProtobufStateObject"><rect codeLine="20" fill="#F1F1F1" height="40.6211" id="ProtobufStateObject" rx="2.5" ry="2.5" style="stroke:#181818;stroke-width:0.5;" width="170" x="495" y="233.5"/><ellipse cx="510" cy="253.8105" fill="#9B9B9B" rx="11" ry="11" style="stroke:#181818;stroke-width:1.0;"/><path d="M511.3418,261.0605 L508.8931,261.0605 L508.8931,250.8091 L505.7471,250.8091 L505.7471,248.6675 L514.4878,248.6675 L514.4878,250.8091 L511.3418,250.8091 Z " fill="#000000"/><text fill="#000000" font-family="sans-serif" font-size="12" font-style="italic" lengthAdjust="spacing" textLength="35" x="575.5" y="250.1016">«trait»</text><text fill="#000000" font-family="sans-serif" font-size="14" font-style="italic" lengthAdjust="spacing" textLength="138" x="524" y="266.168">ProtobufStateObject</text></g><!--MD5=[7cc922a1a78a79d6903afc85a341ee87]
reverse link Event to ProtobufEvent--><g id="link_Event_ProtobufEvent"><path d="M911.36,154.46 C893.69,179.93 870.91,212.77 856.62,233.37 " fill="none" id="Event-backto-ProtobufEvent" style="stroke:#181818;stroke-width:1.0;"/><polygon fill="none" points="905.98,150.94,923.13,138.49,917.48,158.92,905.98,150.94" style="stroke:#181818;stroke-width:1.0;"/></g><!--MD5=[7149d4d26b40e1b40549a00fd745b6d2]
reverse link Event to CborEvent--><g id="link_Event_CborEvent"><path d="M962.36,154.46 C979.85,179.93 1002.39,212.77 1016.52,233.37 " fill="none" id="Event-backto-CborEvent" style="stroke:#181818;stroke-width:1.0;"/><polygon fill="none" points="956.27,158.94,950.72,138.49,967.81,151.02,956.27,158.94" style="stroke:#181818;stroke-width:1.0;"/></g><!--MD5=[e256fbe137a0a982d11d784710ee8eb4]
reverse link ProtobufDomainObject to ProtobufStateObject--><g id="link_ProtobufDomainObject_ProtobufStateObject"><path d="M434.12,149.51 C470.68,175.45 521.04,211.17 552.01,233.15 " fill="none" id="ProtobufDomainObject-backto-ProtobufStateObject" style="stroke:#181818;stroke-width:1.0;"/><polygon fill="none" points="430.44,154.77,418.18,137.49,438.55,143.36,430.44,154.77" style="stroke:#181818;stroke-width:1.0;"/></g><!--MD5=[c5dc725f07b5906dab16871f8d4aacef]
reverse link State to ProtobufStateObject--><g id="link_State_ProtobufStateObject"><path codeLine="21" d="M580,170.24 C580,192.32 580,216.65 580,233.18 " fill="none" id="State-backto-ProtobufStateObject" style="stroke:#181818;stroke-width:1.0;"/><polygon fill="none" points="573,170.27,580,150.27,587,170.27,573,170.27" style="stroke:#181818;stroke-width:1.0;"/><text fill="#000000" font-family="sans-serif" font-size="13" lengthAdjust="spacing" textLength="50" x="581" y="192.5684">«mixin»</text></g><!--MD5=[45a0e2ee0afd6b64cea82b21a178122f]
@startuml Serialization
hide empty members
skinparam monochrome true

package app.softnetwork.persistence {
    package message {
        abstract Event << (T,orchid) trait >>
        abstract ProtobufEvent << (T,orchid) trait >> extends Event
        note bottom of ProtobufEvent: Marker trait for serializing \nan event using \nProtobuf Serializer
        abstract CborEvent << (T,orchid) trait >> extends Event
        note bottom of CborEvent: Marker trait for serializing \nan event using \nJackson CBOR Serializer
    }
    package model {
        abstract State << (T,orchid) trait >> {
            +uuid: String
        }
        abstract ProtobufDomainObject << (T,orchid) trait >>
        note bottom of ProtobufDomainObject: Marker trait for serializing \na Domain Object using \nProtobuf Serializer
        abstract CborDomainObject << (T,orchid) trait >>
        note bottom of CborDomainObject: Marker trait for serializing \na Domain Object using \nJackson CBOR Serializer
        abstract ProtobufStateObject << (T,orchid) trait >> extends ProtobufDomainObject
        State <|- - ProtobufStateObject: <<mixin>>
    }
}
@enduml

PlantUML version 1.2022.12(Sun Oct 23 20:12:26 CEST 2022)
(GPL source distribution)
Java Runtime: OpenJDK Runtime Environment
JVM: OpenJDK 64-Bit Server VM
Default Encoding: UTF-8
Language: fr
Country: FR
--></g></svg>