<?xml version="1.0" encoding="UTF-8" standalone="no"?><svg xmlns="http://www.w3.org/2000/svg" xmlns:xlink="http://www.w3.org/1999/xlink" contentStyleType="text/css" height="418px" preserveAspectRatio="none" style="width:1274px;height:418px;background:#FFFFFF;" version="1.1" viewBox="0 0 1274 418" width="1274px" zoomAndPan="magnify"><defs/><g><!--MD5=[11eb2407d6ff70dab97e58b348856eff]
cluster app.softnetwork.persistence--><g id="cluster_app.softnetwork.persistence"><path d="M8.5,6 L211.5,6 A3.75,3.75 0 0 1 214,8.5 L221,28.4883 L1264.5,28.4883 A2.5,2.5 0 0 1 1267,30.9883 L1267,408.5 A2.5,2.5 0 0 1 1264.5,411 L8.5,411 A2.5,2.5 0 0 1 6,408.5 L6,8.5 A2.5,2.5 0 0 1 8.5,6 " fill="none" style="stroke:#000000;stroke-width:1.5;"/><line style="stroke:#000000;stroke-width:1.5;" x1="6" x2="221" y1="28.4883" y2="28.4883"/><text fill="#000000" font-family="sans-serif" font-size="14" font-weight="bold" lengthAdjust="spacing" textLength="202" x="10" y="21.5352">app.softnetwork.persistence</text></g><!--MD5=[88851b7b27e529b39ff5d3ce6ae79142]
cluster message--><g id="cluster_message"><path d="M792.5,61 L856.5,61 A3.75,3.75 0 0 1 859,63.5 L866,83.4883 L1240.5,83.4883 A2.5,2.5 0 0 1 1243,85.9883 L1243,384.5 A2.5,2.5 0 0 1 1240.5,387 L792.5,387 A2.5,2.5 0 0 1 790,384.5 L790,63.5 A2.5,2.5 0 0 1 792.5,61 " fill="none" style="stroke:#000000;stroke-width:1.5;"/><line style="stroke:#000000;stroke-width:1.5;" x1="790" x2="866" y1="83.4883" y2="83.4883"/><text fill="#000000" font-family="sans-serif" font-size="14" font-weight="bold" lengthAdjust="spacing" textLength="63" x="794" y="76.5352">message</text></g><!--MD5=[5d4cd377749310b66bf14896f5cd8d9b]
cluster model--><g id="cluster_model"><path d="M32.5,49 L78.5,49 A3.75,3.75 0 0 1 81,51.5 L88,71.4883 L763.5,71.4883 A2.5,2.5 0 0 1 766,73.9883 L766,280.5 A2.5,2.5 0 0 1 763.5,283 L32.5,283 A2.5,2.5 0 0 1 30,280.5 L30,51.5 A2.5,2.5 0 0 1 32.5,49 " fill="none" style="stroke:#000000;stroke-width:1.5;"/><line style="stroke:#000000;stroke-width:1.5;" x1="30" x2="88" y1="71.4883" y2="71.4883"/><text fill="#000000" font-family="sans-serif" font-size="14" font-weight="bold" lengthAdjust="spacing" textLength="45" x="34" y="64.5352">model</text></g><!--MD5=[ac13618b1a974308c1f12eb6c57723dc]
class Event--><g id="elem_Event"><rect codeLine="6" fill="#F1F1F1" height="40.6211" id="Event" rx="2.5" ry="2.5" style="stroke:#181818;stroke-width:0.5;" width="69" x="990.5" y="96"/><ellipse cx="1005.5" cy="116.3105" fill="#9B9B9B" rx="11" ry="11" style="stroke:#181818;stroke-width:1.0;"/><path d="M1006.8418,123.5605 L1004.3931,123.5605 L1004.3931,113.3091 L1001.2471,113.3091 L1001.2471,111.1675 L1009.9878,111.1675 L1009.9878,113.3091 L1006.8418,113.3091 Z " fill="#000000"/><text fill="#000000" font-family="sans-serif" font-size="12" font-style="italic" lengthAdjust="spacing" textLength="35" x="1020.5" y="112.6016">«trait»</text><text fill="#000000" font-family="sans-serif" font-size="14" font-style="italic" lengthAdjust="spacing" textLength="37" x="1019.5" y="128.668">Event</text></g><!--MD5=[15ab5119cce40e2166e334bc0ff4208a]
class ProtobufEvent--><g id="elem_ProtobufEvent"><rect codeLine="7" fill="#F1F1F1" height="40.6211" id="ProtobufEvent" rx="2.5" ry="2.5" style="stroke:#181818;stroke-width:0.5;" width="129" x="865.5" y="226"/><ellipse cx="880.5" cy="246.3105" fill="#9B9B9B" rx="11" ry="11" style="stroke:#181818;stroke-width:1.0;"/><path d="M881.8418,253.5605 L879.3931,253.5605 L879.3931,243.3091 L876.2471,243.3091 L876.2471,241.1675 L884.9878,241.1675 L884.9878,243.3091 L881.8418,243.3091 Z " fill="#000000"/><text fill="#000000" font-family="sans-serif" font-size="12" font-style="italic" lengthAdjust="spacing" textLength="35" x="925.5" y="242.6016">«trait»</text><text fill="#000000" font-family="sans-serif" font-size="14" font-style="italic" lengthAdjust="spacing" textLength="97" x="894.5" y="258.668">ProtobufEvent</text></g><g id="elem_GMN7"><path d="M806.5,330 L806.5,370.6211 A0,0 0 0 0 806.5,370.6211 L995.5,370.6211 A0,0 0 0 0 995.5,370.6211 L995.5,340 L985.5,330 L910.67,330 L924.41,267.17 L902.67,330 L806.5,330 A0,0 0 0 0 806.5,330 " fill="#FAFAFA" style="stroke:#181818;stroke-width:0.5;"/><path d="M985.5,330 L985.5,340 L995.5,340 L985.5,330 " fill="#FAFAFA" style="stroke:#181818;stroke-width:0.5;"/><text fill="#000000" font-family="sans-serif" font-size="13" lengthAdjust="spacing" textLength="164" x="812.5" y="347.5684">Marker trait for serializing</text><text fill="#000000" font-family="sans-serif" font-size="13" lengthAdjust="spacing" textLength="142" x="812.5" y="362.8789">an event with Protobuf</text></g><!--MD5=[017cf148d82c545da437ca02ecf5dbc2]
class CborEvent--><g id="elem_CborEvent"><rect codeLine="9" fill="#F1F1F1" height="40.6211" id="CborEvent" rx="2.5" ry="2.5" style="stroke:#181818;stroke-width:0.5;" width="103" x="1067.5" y="226"/><ellipse cx="1082.5" cy="246.3105" fill="#9B9B9B" rx="11" ry="11" style="stroke:#181818;stroke-width:1.0;"/><path d="M1083.8418,253.5605 L1081.3931,253.5605 L1081.3931,243.3091 L1078.2471,243.3091 L1078.2471,241.1675 L1086.9878,241.1675 L1086.9878,243.3091 L1083.8418,243.3091 Z " fill="#000000"/><text fill="#000000" font-family="sans-serif" font-size="12" font-style="italic" lengthAdjust="spacing" textLength="35" x="1114.5" y="242.6016">«trait»</text><text fill="#000000" font-family="sans-serif" font-size="14" font-style="italic" lengthAdjust="spacing" textLength="71" x="1096.5" y="258.668">CborEvent</text></g><g id="elem_GMN12"><path d="M1031,330 L1031,370.6211 A0,0 0 0 0 1031,370.6211 L1227,370.6211 A0,0 0 0 0 1227,370.6211 L1227,340 L1217,330 L1131.04,330 L1120.93,267.17 L1123.04,330 L1031,330 A0,0 0 0 0 1031,330 " fill="#FAFAFA" style="stroke:#181818;stroke-width:0.5;"/><path d="M1217,330 L1217,340 L1227,340 L1217,330 " fill="#FAFAFA" style="stroke:#181818;stroke-width:0.5;"/><text fill="#000000" font-family="sans-serif" font-size="13" lengthAdjust="spacing" textLength="164" x="1037" y="347.5684">Marker trait for serializing</text><text fill="#000000" font-family="sans-serif" font-size="13" lengthAdjust="spacing" textLength="175" x="1037" y="362.8789">an event with Jackson CBOR</text></g><!--MD5=[60d6b92408f98aed8df94d5c6e04aa63]
class State--><g id="elem_State"><rect codeLine="13" fill="#F1F1F1" height="65.1094" id="State" rx="2.5" ry="2.5" style="stroke:#181818;stroke-width:0.5;" width="106" x="612" y="84"/><ellipse cx="645" cy="104.3105" fill="#9B9B9B" rx="11" ry="11" style="stroke:#181818;stroke-width:1.0;"/><path d="M646.3418,111.5605 L643.8931,111.5605 L643.8931,101.3091 L640.7471,101.3091 L640.7471,99.1675 L649.4878,99.1675 L649.4878,101.3091 L646.3418,101.3091 Z " fill="#000000"/><text fill="#000000" font-family="sans-serif" font-size="12" font-style="italic" lengthAdjust="spacing" textLength="35" x="662.5" y="100.6016">«trait»</text><text fill="#000000" font-family="sans-serif" font-size="14" font-style="italic" lengthAdjust="spacing" textLength="34" x="663" y="116.668">State</text><line style="stroke:#181818;stroke-width:0.5;" x1="613" x2="717" y1="124.6211" y2="124.6211"/><ellipse cx="623" cy="138.3652" fill="none" rx="3" ry="3" style="stroke:#545454;stroke-width:1.0;"/><text fill="#000000" font-family="sans-serif" font-size="14" lengthAdjust="spacing" textLength="80" x="632" y="142.1563">uuid: String</text></g><!--MD5=[d09cb635ba2e09ef9dc8811d574af766]
class ProtobufDomainObject--><g id="elem_ProtobufDomainObject"><rect codeLine="16" fill="#F1F1F1" height="40.6211" id="ProtobufDomainObject" rx="2.5" ry="2.5" style="stroke:#181818;stroke-width:0.5;" width="189" x="375.5" y="96"/><ellipse cx="390.5" cy="116.3105" fill="#9B9B9B" rx="11" ry="11" style="stroke:#181818;stroke-width:1.0;"/><path d="M391.8418,123.5605 L389.3931,123.5605 L389.3931,113.3091 L386.2471,113.3091 L386.2471,111.1675 L394.9878,111.1675 L394.9878,113.3091 L391.8418,113.3091 Z " fill="#000000"/><text fill="#000000" font-family="sans-serif" font-size="12" font-style="italic" lengthAdjust="spacing" textLength="35" x="465.5" y="112.6016">«trait»</text><text fill="#000000" font-family="sans-serif" font-size="14" font-style="italic" lengthAdjust="spacing" textLength="157" x="404.5" y="128.668">ProtobufDomainObject</text></g><g id="elem_GMN18"><path d="M329.5,226 L329.5,266.6211 A0,0 0 0 0 329.5,266.6211 L544.5,266.6211 A0,0 0 0 0 544.5,266.6211 L544.5,236 L534.5,226 L446.12,226 L464.84,137.5 L438.12,226 L329.5,226 A0,0 0 0 0 329.5,226 " fill="#FAFAFA" style="stroke:#181818;stroke-width:0.5;"/><path d="M534.5,226 L534.5,236 L544.5,236 L534.5,226 " fill="#FAFAFA" style="stroke:#181818;stroke-width:0.5;"/><text fill="#000000" font-family="sans-serif" font-size="13" lengthAdjust="spacing" textLength="164" x="335.5" y="243.5684">Marker trait for serializing</text><text fill="#000000" font-family="sans-serif" font-size="13" lengthAdjust="spacing" textLength="194" x="335.5" y="258.8789">a Domain Object with Protobuf</text></g><!--MD5=[bbd15261341e43157c08a3731c07695d]
class CborDomainObject--><g id="elem_CborDomainObject"><rect codeLine="18" fill="#F1F1F1" height="40.6211" id="CborDomainObject" rx="2.5" ry="2.5" style="stroke:#181818;stroke-width:0.5;" width="163" x="88.5" y="96"/><ellipse cx="103.5" cy="116.3105" fill="#9B9B9B" rx="11" ry="11" style="stroke:#181818;stroke-width:1.0;"/><path d="M104.8418,123.5605 L102.3931,123.5605 L102.3931,113.3091 L99.2471,113.3091 L99.2471,111.1675 L107.9878,111.1675 L107.9878,113.3091 L104.8418,113.3091 Z " fill="#000000"/><text fill="#000000" font-family="sans-serif" font-size="12" font-style="italic" lengthAdjust="spacing" textLength="35" x="165.5" y="112.6016">«trait»</text><text fill="#000000" font-family="sans-serif" font-size="14" font-style="italic" lengthAdjust="spacing" textLength="131" x="117.5" y="128.668">CborDomainObject</text></g><g id="elem_GMN22"><path d="M46,226 L46,266.6211 A0,0 0 0 0 46,266.6211 L294,266.6211 A0,0 0 0 0 294,266.6211 L294,236 L284,226 L174,226 L170,137.5 L166,226 L46,226 A0,0 0 0 0 46,226 " fill="#FAFAFA" style="stroke:#181818;stroke-width:0.5;"/><path d="M284,226 L284,236 L294,236 L284,226 " fill="#FAFAFA" style="stroke:#181818;stroke-width:0.5;"/><text fill="#000000" font-family="sans-serif" font-size="13" lengthAdjust="spacing" textLength="164" x="52" y="243.5684">Marker trait for serializing</text><text fill="#000000" font-family="sans-serif" font-size="13" lengthAdjust="spacing" textLength="227" x="52" y="258.8789">a Domain Object with Jackson CBOR</text></g><!--MD5=[eefe30f94418bf4dfece7f6bba4ec155]
class ProtobufStateObject--><g id="elem_ProtobufStateObject"><rect codeLine="20" fill="#F1F1F1" height="40.6211" id="ProtobufStateObject" rx="2.5" ry="2.5" style="stroke:#181818;stroke-width:0.5;" width="170" x="580" y="226"/><ellipse cx="595" cy="246.3105" fill="#9B9B9B" rx="11" ry="11" style="stroke:#181818;stroke-width:1.0;"/><path d="M596.3418,253.5605 L593.8931,253.5605 L593.8931,243.3091 L590.7471,243.3091 L590.7471,241.1675 L599.4878,241.1675 L599.4878,243.3091 L596.3418,243.3091 Z " fill="#000000"/><text fill="#000000" font-family="sans-serif" font-size="12" font-style="italic" lengthAdjust="spacing" textLength="35" x="660.5" y="242.6016">«trait»</text><text fill="#000000" font-family="sans-serif" font-size="14" font-style="italic" lengthAdjust="spacing" textLength="138" x="609" y="258.668">ProtobufStateObject</text></g><!--MD5=[7cc922a1a78a79d6903afc85a341ee87]
reverse link Event to ProtobufEvent--><g id="link_Event_ProtobufEvent"><path d="M997.75,154.22 C980.5,177.46 958.85,206.62 944.74,225.64 " fill="none" id="Event-backto-ProtobufEvent" style="stroke:#181818;stroke-width:1.0;"/><polygon fill="none" points="992.62,150.39,1010.16,138.5,1003.86,158.73,992.62,150.39" style="stroke:#181818;stroke-width:1.0;"/></g><!--MD5=[7149d4d26b40e1b40549a00fd745b6d2]
reverse link Event to CborEvent--><g id="link_Event_CborEvent"><path d="M1051.96,154.22 C1069.04,177.46 1090.45,206.62 1104.42,225.64 " fill="none" id="Event-backto-CborEvent" style="stroke:#181818;stroke-width:1.0;"/><polygon fill="none" points="1045.88,158.76,1039.69,138.5,1057.17,150.48,1045.88,158.76" style="stroke:#181818;stroke-width:1.0;"/></g><!--MD5=[e256fbe137a0a982d11d784710ee8eb4]
reverse link ProtobufDomainObject to ProtobufStateObject--><g id="link_ProtobufDomainObject_ProtobufStateObject"><path d="M517.99,149 C554.48,172.95 603.56,205.17 634.75,225.64 " fill="none" id="ProtobufDomainObject-backto-ProtobufStateObject" style="stroke:#181818;stroke-width:1.0;"/><polygon fill="none" points="514.35,154.33,501.47,137.5,522.03,142.62,514.35,154.33" style="stroke:#181818;stroke-width:1.0;"/></g><!--MD5=[c5dc725f07b5906dab16871f8d4aacef]
reverse link State to ProtobufStateObject--><g id="link_State_ProtobufStateObject"><path codeLine="21" d="M665,170.24 C665,189.9 665,211.02 665,225.87 " fill="none" id="State-backto-ProtobufStateObject" style="stroke:#181818;stroke-width:1.0;"/><polygon fill="none" points="658,170.47,665,150.47,672,170.47,658,170.47" style="stroke:#181818;stroke-width:1.0;"/><text fill="#000000" font-family="sans-serif" font-size="13" lengthAdjust="spacing" textLength="50" x="666" y="192.5684">«mixin»</text></g><!--MD5=[4872074a5ad70198e0f16c7f55a8029b]
@startuml Serialization
hide empty members
skinparam monochrome true

package app.softnetwork.persistence {
    package message {
        abstract Event << (T,orchid) trait >>
        abstract ProtobufEvent << (T,orchid) trait >> extends Event
        note bottom of ProtobufEvent: Marker trait for serializing \nan event with Protobuf
        abstract CborEvent << (T,orchid) trait >> extends Event
        note bottom of CborEvent: Marker trait for serializing \nan event with Jackson CBOR
    }
    package model {
        abstract State << (T,orchid) trait >> {
            +uuid: String
        }
        abstract ProtobufDomainObject << (T,orchid) trait >>
        note bottom of ProtobufDomainObject: Marker trait for serializing \na Domain Object with Protobuf
        abstract CborDomainObject << (T,orchid) trait >>
        note bottom of CborDomainObject: Marker trait for serializing \na Domain Object with Jackson CBOR
        abstract ProtobufStateObject << (T,orchid) trait >> extends ProtobufDomainObject
        State <|- - ProtobufStateObject: <<mixin>>
    }
}
@enduml

PlantUML version 1.2022.12(Sun Oct 23 20:12:26 CEST 2022)
(GPL source distribution)
Java Runtime: OpenJDK Runtime Environment
JVM: OpenJDK 64-Bit Server VM
Default Encoding: UTF-8
Language: fr
Country: FR
--></g></svg>