<?xml version="1.0" encoding="UTF-8" standalone="no"?><svg xmlns="http://www.w3.org/2000/svg" xmlns:xlink="http://www.w3.org/1999/xlink" contentStyleType="text/css" height="356px" preserveAspectRatio="none" style="width:317px;height:356px;background:#FFFFFF;" version="1.1" viewBox="0 0 317 356" width="317px" zoomAndPan="magnify"><defs/><g><!--MD5=[be171b984e54d26f0206aa8207158a01]
cluster app.softnetwork.persistence.model--><g id="cluster_app.softnetwork.persistence.model"><path d="M8.5,6 L259.5,6 A3.75,3.75 0 0 1 262,8.5 L269,28.4883 L307.5,28.4883 A2.5,2.5 0 0 1 310,30.9883 L310,346.5 A2.5,2.5 0 0 1 307.5,349 L8.5,349 A2.5,2.5 0 0 1 6,346.5 L6,8.5 A2.5,2.5 0 0 1 8.5,6 " fill="none" style="stroke:#000000;stroke-width:1.5;"/><line style="stroke:#000000;stroke-width:1.5;" x1="6" x2="269" y1="28.4883" y2="28.4883"/><text fill="#000000" font-family="sans-serif" font-size="14" font-weight="bold" lengthAdjust="spacing" textLength="250" x="10" y="21.5352">app.softnetwork.persistence.model</text></g><!--MD5=[60d6b92408f98aed8df94d5c6e04aa63]
class State--><g id="elem_State"><rect codeLine="5" fill="#F1F1F1" height="65.1094" id="State" rx="2.5" ry="2.5" style="stroke:#181818;stroke-width:0.5;" width="106" x="105" y="126"/><ellipse cx="138" cy="146.3105" fill="#9B9B9B" rx="11" ry="11" style="stroke:#181818;stroke-width:1.0;"/><path d="M139.3418,153.5605 L136.8931,153.5605 L136.8931,143.3091 L133.7471,143.3091 L133.7471,141.1675 L142.4878,141.1675 L142.4878,143.3091 L139.3418,143.3091 Z " fill="#000000"/><text fill="#000000" font-family="sans-serif" font-size="12" font-style="italic" lengthAdjust="spacing" textLength="35" x="155.5" y="142.6016">«trait»</text><text fill="#000000" font-family="sans-serif" font-size="14" font-style="italic" lengthAdjust="spacing" textLength="34" x="156" y="158.668">State</text><line style="stroke:#181818;stroke-width:0.5;" x1="106" x2="210" y1="166.6211" y2="166.6211"/><ellipse cx="116" cy="180.3652" fill="none" rx="3" ry="3" style="stroke:#545454;stroke-width:1.0;"/><text fill="#000000" font-family="sans-serif" font-size="14" lengthAdjust="spacing" textLength="80" x="125" y="184.1563">uuid: String</text></g><g id="elem_GMN4"><path d="M22.5,41 L22.5,66.3105 A0,0 0 0 0 22.5,66.3105 L154,66.3105 L158,125.65 L162,66.3105 L293.5,66.3105 A0,0 0 0 0 293.5,66.3105 L293.5,51 L283.5,41 L22.5,41 A0,0 0 0 0 22.5,41 " fill="#FAFAFA" style="stroke:#181818;stroke-width:0.5;"/><path d="M283.5,41 L283.5,51 L293.5,51 L283.5,41 " fill="#FAFAFA" style="stroke:#181818;stroke-width:0.5;"/><text fill="#000000" font-family="sans-serif" font-size="13" lengthAdjust="spacing" textLength="250" x="28.5" y="58.5684">The in-memory state of the entity actor</text></g><!--MD5=[08e89da640291bad7d678a019019c23e]
class Timestamped--><g id="elem_Timestamped"><rect codeLine="9" fill="#F1F1F1" height="81.5977" id="Timestamped" rx="2.5" ry="2.5" style="stroke:#181818;stroke-width:0.5;" width="163" x="76.5" y="251"/><ellipse cx="108.6" cy="271.3105" fill="#9B9B9B" rx="11" ry="11" style="stroke:#181818;stroke-width:1.0;"/><path d="M109.9418,278.5605 L107.4931,278.5605 L107.4931,268.3091 L104.3471,268.3091 L104.3471,266.1675 L113.0878,266.1675 L113.0878,268.3091 L109.9418,268.3091 Z " fill="#000000"/><text fill="#000000" font-family="sans-serif" font-size="12" font-style="italic" lengthAdjust="spacing" textLength="35" x="155.4" y="267.6016">«trait»</text><text fill="#000000" font-family="sans-serif" font-size="14" font-style="italic" lengthAdjust="spacing" textLength="93" x="126.4" y="283.668">Timestamped</text><line style="stroke:#181818;stroke-width:0.5;" x1="77.5" x2="238.5" y1="291.6211" y2="291.6211"/><ellipse cx="87.5" cy="305.3652" fill="none" rx="3" ry="3" style="stroke:#545454;stroke-width:1.0;"/><text fill="#000000" font-family="sans-serif" font-size="14" lengthAdjust="spacing" textLength="137" x="96.5" y="309.1563">createdDate: Instant</text><ellipse cx="87.5" cy="321.8535" fill="none" rx="3" ry="3" style="stroke:#545454;stroke-width:1.0;"/><text fill="#000000" font-family="sans-serif" font-size="14" lengthAdjust="spacing" textLength="137" x="96.5" y="325.6445">lastUpdated: Instant</text></g><!--MD5=[2c97e338f5ee1b9858d883af0f549120]
reverse link State to Timestamped--><g id="link_State_Timestamped"><path d="M158,212.09 C158,225.05 158,238.72 158,250.98 " fill="none" id="State-backto-Timestamped" style="stroke:#181818;stroke-width:1.0;"/><polygon fill="none" points="151,212.33,158,192.33,165,212.33,151,212.33" style="stroke:#181818;stroke-width:1.0;"/></g><!--MD5=[7221e95294892bf33be92fa72d744d52]
@startuml State
hide empty members
skinparam monochrome true

package app.softnetwork.persistence.model {
    abstract State << (T,orchid) trait >> {
        +uuid: String
    }
    note top of State: The in-memory state of the entity actor
    abstract Timestamped << (T,orchid) trait >> extends State{
        +createdDate: Instant
        +lastUpdated: Instant
    }
}
@enduml

PlantUML version 1.2022.12(Sun Oct 23 20:12:26 CEST 2022)
(GPL source distribution)
Java Runtime: OpenJDK Runtime Environment
JVM: OpenJDK 64-Bit Server VM
Default Encoding: UTF-8
Language: fr
Country: FR
--></g></svg>